<?xml version="1.0" encoding="UTF-8"?>
<svg id="Layer_1" data-name="Layer 1" xmlns="http://www.w3.org/2000/svg" xmlns:xlink="http://www.w3.org/1999/xlink" viewBox="0 0 207.44 40.07">
  <defs>
    <style>
      .cls-1 {
        fill: url(#linear-gradient-2);
      }

      .cls-2 {
        fill: url(#linear-gradient-6);
      }

      .cls-3 {
        fill: url(#linear-gradient-10);
      }

      .cls-4 {
        fill: url(#linear-gradient-5);
      }

      .cls-5 {
        fill: url(#linear-gradient-7);
      }

      .cls-6 {
        fill: url(#linear-gradient-9);
      }

      .cls-7 {
        fill: url(#linear-gradient-3);
      }

      .cls-8 {
        fill: url(#linear-gradient);
      }

      .cls-9 {
        fill: url(#linear-gradient-4);
      }

      .cls-10 {
        fill: url(#linear-gradient-8);
      }
    </style>
    <linearGradient id="linear-gradient" x1="42.04" y1="19.13" x2="191.92" y2="19.13" gradientUnits="userSpaceOnUse">
      <stop offset="0" stop-color="#161fe4"/>
      <stop offset=".56" stop-color="#a854f5"/>
      <stop offset=".91" stop-color="#d885ff"/>
    </linearGradient>
    <linearGradient id="linear-gradient-2" x1="42.04" y1="25.51" x2="191.92" y2="25.51" xlink:href="#linear-gradient"/>
    <linearGradient id="linear-gradient-3" x1="42.04" y1="25" x2="191.92" y2="25" xlink:href="#linear-gradient"/>
    <linearGradient id="linear-gradient-4" x1="42.04" x2="191.92" xlink:href="#linear-gradient"/>
    <linearGradient id="linear-gradient-5" x1="42.04" y1="22.51" x2="191.92" y2="22.51" xlink:href="#linear-gradient"/>
    <linearGradient id="linear-gradient-6" x1="42.04" y1="22.36" x2="191.92" y2="22.36" xlink:href="#linear-gradient"/>
    <linearGradient id="linear-gradient-7" x1="42.04" y1="22.55" x2="191.92" y2="22.55" xlink:href="#linear-gradient"/>
    <linearGradient id="linear-gradient-8" x1="40.2" y1="19.39" x2="186.57" y2="19.39" xlink:href="#linear-gradient"/>
    <linearGradient id="linear-gradient-9" x1="42.04" y1="6.82" x2="191.92" y2="6.82" xlink:href="#linear-gradient"/>
    <linearGradient id="linear-gradient-10" x1="42.04" y1="30.86" x2="191.92" y2="30.86" xlink:href="#linear-gradient"/>
  </defs>
  <path class="cls-8" d="m54.68,10.04c1.41,0,2.58.31,3.44.69.17-1.8.48-4.39.69-5.85-1.65-.46-2.99-.73-5.37-.73-5.91,0-8.18,3.06-8.18,7.49v2.56h-2.34c.03,1.83.03,4.09,0,5.85l2.44-.04v1.72c0,3.86-.07,7.99-.24,12.38,1.24-.08,2.3-.08,3.3-.08,1.07,0,2.06,0,3.34.08-.17-4.13-.21-8.1-.21-14.14,2.24,0,4.44.04,6.64.08-.03-1.87-.03-4.24,0-6-2.17.04-4.4.08-6.64.11v-1.57c0-1.87.89-2.56,3.13-2.56Z"/>
  <path class="cls-1" d="m72.34,21.35c-.62,2.52-1.13,4.62-1.51,6.3h-.17c-.34-1.68-.72-3.82-1.41-6.27-1-3.9-2.41-8.56-2.82-10.43h-7.05c1.86,5.23,5.54,16.89,6.67,20.14.65-.08,1.82-.08,3.34-.08-.76,2.06-1.82,2.71-3.75,2.71-1.82,0-3.2-.19-4.64-.84-.1,1.22-.93,5.08-1.1,6.23,1.58.46,3.06.96,5.5.96,5.67,0,7.74-2.87,9.84-8.87,1.27-3.44,4.68-14.9,6.47-20.25h-6.53c-.38,1.68-1.79,6.46-2.82,10.39Z"/>
  <path class="cls-7" d="m97.17,10.57c-3.47,0-5.78,1.53-6.98,3.94l-.27-.08c.03-.57.07-1.11.07-1.64,0-.57.03-1.15.03-1.83h-6.47c.07,3.25.07,6.69.07,11.04,0,5.96,0,13.6-.1,17.42h6.53c-.03-1.8-.07-3.44-.07-5.16,0-1.18,0-2.14-.03-3.17l.14-.04c1.17,1.95,3.4,3.44,6.98,3.44,4.88,0,7.98-4.32,7.98-12.04s-2.55-11.88-7.88-11.88Zm-2.72,18.3c-1.93,0-3.4-.42-4.57-1.18v-6.04c0-4.01,2.13-5.58,4.92-5.58s4.06,1.68,4.06,6.42-1.38,6.38-4.4,6.38Z"/>
  <path class="cls-9" d="m125.76,10.04c1.41,0,2.58.31,3.44.69.17-1.8.48-4.39.69-5.85-1.65-.46-2.99-.73-5.37-.73-5.91,0-8.18,3.06-8.18,7.49v2.56h-2.34c.03,1.83.03,4.09,0,5.85l2.44-.04v1.72c0,3.86-.07,7.99-.24,12.38,1.24-.08,2.3-.08,3.3-.08,1.07,0,2.06,0,3.34.08-.17-4.13-.21-8.1-.21-14.14,2.24,0,4.44.04,6.64.08-.03-1.87-.03-4.24,0-6-2.17.04-4.4.08-6.64.11v-1.57c0-1.87.89-2.56,3.13-2.56Z"/>
  <path class="cls-4" d="m150.74,19.51c0-5.43-2.68-8.98-9.8-8.98s-9.87,4.13-9.56,9.63c.86-.15,2.1-.15,3.34-.15.96,0,1.96,0,2.72.04-.1-2.64,1-3.74,3.61-3.74,2.48,0,3.4,1.22,3.4,3.4,0,.61,0,1.26-.03,1.91-1.2-.19-2.92-.27-4.68-.27-6.02,0-8.98,2.03-8.98,6.8s2.41,6.34,6.84,6.34c3.54,0,5.88-1.38,6.77-4.24l.17.04c-.03.76-.07,1.57-.07,2.22,0,1.45.24,1.6,1.38,1.6h5.3c-.34-1.03-.52-4.2-.52-6.84s.1-4.85.1-7.76Zm-10.76,10.01c-2.27,0-3.06-.76-3.06-2.37,0-1.76,1.1-2.56,3.65-2.56,1.34,0,2.61.04,3.82.23-.03,2.9-1.75,4.7-4.4,4.7Z"/>
  <path class="cls-2" d="m174.93,19.25c0-6.23-2.58-8.64-7.22-8.64-3.44,0-5.85,1.22-7.12,4.09l-.21-.08c.07-1.26.1-2.25.14-3.67h-6.5c.07,3.17.1,6.76.1,11.77,0,5.31,0,8.14-.1,11.39h6.47c-.03-2.29-.07-4.85-.07-12.23,0-3.94,1.99-5.46,4.61-5.46s3.54,1.22,3.54,4.39c0,5.46-.03,10.05-.1,13.3h6.5c-.1-2.52-.1-4.97-.1-7.87,0-2.06.07-3.71.07-6.99Z"/>
  <path class="cls-5" d="m189.33,20.05c-4.75-.57-5.36-1.41-5.36-2.41,0-1.07.83-1.68,3.68-1.68s3.85.73,3.85,2.18v.38c.62-.04,1.65-.08,2.68-.08,1.14,0,2.34.04,3.06.11.03-.42.07-.76.07-1.11,0-4.59-2.75-6.95-9.56-6.95s-9.84,2.33-9.84,7.03c0,3.9,1.75,6.61,8.49,7.41,4.33.42,5.19,1.19,5.19,2.33,0,1.22-.86,1.83-3.68,1.83-3.27,0-4.23-.8-4.23-2.29v-.38c-.72.08-1.75.11-2.75.11-1.24,0-2.34-.08-3.06-.15,0,.34-.03.73-.03,1.03,0,4.39,2.3,7.18,10.01,7.18,7.12,0,9.77-2.83,9.77-7.22s-1.96-6.53-8.29-7.34Z"/>
  <path class="cls-10" d="m22.27,4.07l-.05.02L5.6,8.98l-.22.07L0,19.79c2.8,2.08,9.11,6.74,20.36,14.93,3.52-5.76,9.84-16.87,12.69-21.92-.01-.01-.01-.03-.03-.04-3.6-2.96-7.21-5.86-10.75-8.68Zm-.96,15.01s0,0,0,0h0s-.04,0-.05,0c-.02,0-.04,0-.06,0,0,0,0,0,0,0-.02,0-.04,0-.06,0,0,0,0,0,0,0,0,0,0,0,0,0-.05,0-.1.02-.16.03-.03,0-.07.01-.1.02-.01,0-.02,0-.04,0-.06.01-.12.02-.19.03-.02,0-.05,0-.07.01-.02,0-.03,0-.05,0-.02,0-.03,0-.05,0,0,0-.02,0-.02,0-.07.01-.14.03-.22.04,0,0,0,0,0,0-.09.02-.17.04-.26.05-.02,0-.03,0-.05,0,0,0-.01,0-.02,0-.01,0-.03,0-.04,0-.08.02-.16.03-.24.05,0,0,0,0-.01,0-.04,0-.08.02-.12.03-.06.01-.11.03-.17.04-.02,0-.04,0-.05.01,0,0,0,0-.01,0-.02,0-.04.01-.06.02-.04.01-.08.02-.12.03,0,0-.01,0-.02,0-.1.03-.21.06-.31.09-.02,0-.04.01-.06.02-.03,0-.07.02-.1.03-.04.01-.08.02-.12.03-.04.01-.08.02-.11.03-.02,0-.04.01-.06.02-.03.01-.06.02-.09.03-.05.02-.1.03-.14.05-.03,0-.05.02-.08.03,0,0-.02,0-.03,0-.23.08-.46.17-.68.26,0,0-.01,0-.02,0-.06.02-.11.05-.17.07-.01,0-.02,0-.03.01-.06.03-.12.05-.18.08,0,0,0,0,0,0-.06.03-.12.06-.18.09-.01,0-.02.01-.03.02-.05.02-.09.05-.13.07-.02,0-.03.02-.05.03-.04.02-.08.05-.12.07-.01,0-.02.01-.04.02-.05.03-.1.06-.15.09,0,0-.02.01-.03.02-.04.03-.08.05-.12.08-.01.01-.03.02-.04.03-.03.02-.07.05-.1.07-.01.01-.03.02-.04.03-.04.03-.08.07-.12.1,0,0,0,0,0,0h0s0,0,0,0h0c-.28.23-.45.45-.46.46h0s0,0,0,0c-.02.02-.03.04-.05.06-.02.02-.03.04-.05.06,0,0,0,0,0,.01-.01.02-.02.03-.04.05-.02.02-.04.05-.05.07,0,0-.01.02-.02.02-.01.02-.03.04-.04.06-.01.02-.03.04-.04.06,0,.01-.01.02-.02.03,0,0,0,0,0,0-.02.03-.04.06-.06.1-.01.02-.02.03-.03.05-.02.03-.04.06-.06.1-.01.02-.02.04-.03.06-.02.03-.04.07-.06.1,0,0,0,0,0,.01-.04.08-.08.15-.12.23-.01.02-.02.05-.03.07-.02.03-.03.07-.05.1-.01.03-.02.05-.04.08-.01.03-.03.06-.04.1-.01.03-.03.06-.04.1-.01.03-.03.07-.04.1-.02.05-.04.1-.06.15,0,.03-.02.05-.03.08-.02.04-.03.08-.05.12,0,.02-.02.05-.03.07-.02.05-.03.09-.05.14,0,.02-.01.04-.02.06-.05.14-.09.27-.14.41,0,.01,0,.02-.01.03-.02.06-.04.12-.06.19,0,0,0,.02,0,.03-.05.16-.09.32-.13.48,0,.01,0,.03-.01.04,0,0,0,.02,0,.03-.03.11-.05.22-.08.32,0,0,0,.02,0,.03,0,.01,0,.02,0,.03h0s0,0,0,0h0c-.02.09-.04.18-.06.27,0,0,0,0,0,0,0,0,0,0,0,0,0,.03-.01.07-.02.1,0,0,0,.01,0,.02,0,0,0,0,0,.01-.05.23-.1.46-.14.69,0,0,0,.01,0,.02,0,0,0,0,0,.01-.03.16-.06.32-.08.48,0,0,0,.01,0,.02,0,.04-.01.08-.02.12,0,0,0,.02,0,.03h0s0,0,0,.01c0,0,0,0,0,0,0,0,0,0,0,0,0,0,0,0,0,0,0,0,0,0,0,0-.01-.07-.02-.14-.03-.21,0-.01,0-.02,0-.04-.01-.06-.02-.13-.03-.19,0,0,0-.02,0-.03-.01-.07-.02-.14-.04-.21,0,0,0-.01,0-.02-.01-.07-.03-.14-.04-.21,0,0,0-.01,0-.02,0-.03-.01-.06-.02-.1,0,0,0-.02,0-.03,0-.03-.01-.06-.02-.09,0-.04-.02-.08-.02-.11-.01-.05-.02-.1-.03-.15,0-.03-.01-.06-.02-.09-.01-.05-.02-.11-.04-.16,0,0,0,0,0-.01,0,0,0-.01,0-.02-.02-.1-.05-.2-.07-.29,0-.02,0-.04-.01-.06,0-.02,0-.03-.01-.05,0-.02,0-.03-.01-.05,0-.03-.02-.06-.02-.1,0-.01,0-.03-.01-.04,0-.03-.01-.05-.02-.08-.01-.04-.02-.09-.04-.13-.01-.05-.03-.1-.04-.15,0,0,0,0,0,0,0,0,0,0,0,0-.03-.11-.06-.22-.1-.33-.01-.04-.03-.08-.04-.12,0-.02-.01-.04-.02-.05,0-.02-.01-.03-.02-.05,0,0,0-.01,0-.02,0-.01,0-.03-.01-.04-.03-.08-.06-.16-.09-.24,0-.03-.02-.05-.03-.08,0-.02-.01-.03-.02-.05,0-.01,0-.03-.01-.04,0-.02-.02-.04-.02-.07,0-.02-.02-.04-.02-.06-.02-.04-.03-.08-.05-.12,0-.02-.01-.03-.02-.05-.02-.04-.04-.09-.06-.13,0-.01,0-.02-.01-.03-.03-.08-.07-.15-.1-.23,0,0,0,0,0-.01-.01-.02-.02-.05-.03-.07-.01-.02-.02-.04-.03-.07,0,0,0-.02-.01-.03-.01-.03-.03-.05-.04-.08-.02-.03-.03-.06-.05-.09,0,0,0-.01,0-.02,0-.02-.02-.03-.03-.05-.01-.02-.03-.04-.04-.07-.01-.02-.02-.04-.03-.06,0,0,0-.02-.01-.02-.02-.04-.05-.08-.07-.12,0-.01-.02-.03-.02-.04,0,0,0-.01-.01-.02-.02-.04-.05-.08-.07-.11,0,0,0,0,0,0,0,0,0,0,0,0,0,0,0-.01-.01-.02-.02-.04-.05-.07-.07-.1,0,0,0-.01-.01-.02,0,0-.01-.02-.02-.02-.02-.03-.04-.06-.06-.08,0,0-.01-.02-.02-.02,0,0,0,0,0-.01-.03-.04-.06-.07-.09-.11,0,0,0,0,0,0h0c-.23-.28-.46-.46-.46-.46,0,0,0,0-.01-.01-.02-.02-.05-.04-.07-.06-.02-.01-.03-.03-.05-.04-.01,0-.02-.02-.04-.03-.02-.02-.05-.04-.07-.06,0,0-.01,0-.02-.01-.17-.12-.36-.24-.56-.35,0,0,0,0-.01,0-.05-.03-.1-.05-.15-.08,0,0-.01,0-.02,0,0,0-.02,0-.03-.01-.02,0-.04-.02-.06-.03-.01,0-.03-.01-.04-.02-.01,0-.02-.01-.04-.02,0,0,0,0-.01,0,0,0-.01,0-.02,0-.04-.02-.07-.03-.11-.05,0,0-.02,0-.03-.01,0,0,0,0,0,0-.02,0-.03-.01-.05-.02-.02,0-.04-.02-.06-.03-.02,0-.04-.02-.06-.03-.01,0-.03-.01-.04-.02-.06-.02-.11-.05-.17-.07-.03-.01-.05-.02-.08-.03-.33-.13-.66-.24-1.01-.34,0,0,0,0,0,0-.07-.02-.13-.04-.2-.06,0,0,0,0-.01,0-.2-.06-.39-.11-.59-.16-.01,0-.03,0-.04-.01-.06-.01-.11-.03-.16-.04-.03,0-.05-.01-.08-.02-.05-.01-.1-.02-.15-.03-.05-.01-.11-.02-.16-.04-.04,0-.09-.02-.13-.03-.05-.01-.11-.02-.16-.03-.03,0-.05-.01-.08-.02-.06-.01-.13-.02-.19-.04-.01,0-.03,0-.04,0-.27-.05-.53-.09-.77-.13,0,0,0,0-.01,0,0,0-.01,0-.02,0,0,0,0,0,.01,0,0,0,0,0,0,0,.02,0,.04,0,.05,0,.02,0,.04,0,.06,0,0,0,0,0,0,0,.02,0,.04,0,.06,0,0,0,0,0,0,0,0,0,0,0,0,0,.05,0,.1-.02.16-.03.03,0,.07-.01.1-.02.01,0,.02,0,.04,0,.06-.01.12-.02.19-.03.02,0,.05,0,.07-.01.02,0,.03,0,.05,0,.02,0,.03,0,.05,0,0,0,.02,0,.02,0,.07-.01.14-.03.22-.04,0,0,0,0,0,0,.09-.02.18-.04.26-.05.02,0,.03,0,.05,0,0,0,.01,0,.02,0,.01,0,.03,0,.04,0,.08-.02.16-.03.24-.05,0,0,0,0,.01,0,.04,0,.08-.02.12-.03.06-.01.11-.03.17-.04.02,0,.04,0,.05-.01,0,0,0,0,.01,0,.02,0,.04-.01.06-.02.04-.01.08-.02.12-.03,0,0,.01,0,.02,0,.1-.03.21-.06.31-.09.02,0,.04-.01.06-.02.03,0,.07-.02.1-.03.04-.01.08-.02.12-.03.04-.01.08-.02.11-.03.02,0,.04-.01.06-.02.03-.01.06-.02.09-.03.05-.02.1-.03.14-.05.03,0,.05-.02.08-.03,0,0,.02,0,.03-.01.23-.08.46-.17.68-.26,0,0,.01,0,.02,0,.06-.02.11-.05.17-.07.01,0,.02,0,.03-.01.06-.03.12-.05.18-.08,0,0,0,0,0,0,.06-.03.12-.06.18-.09.01,0,.02-.01.03-.02.05-.02.09-.05.13-.07.02,0,.03-.02.05-.03.04-.02.08-.05.12-.07.01,0,.02-.01.04-.02.05-.03.1-.06.15-.09,0,0,.02-.01.03-.02.04-.03.08-.05.12-.08.01-.01.03-.02.04-.03.03-.02.07-.05.1-.07.01-.01.03-.02.04-.03.04-.03.08-.07.12-.1,0,0,0,0,0,0,0,0,0,0,0,0t0,0c.28-.23.45-.45.46-.46h0s0,0,0,0c.02-.02.03-.04.05-.06.02-.02.03-.04.05-.06,0,0,0,0,0-.01.01-.02.02-.03.04-.05.02-.02.04-.05.05-.07,0,0,.01-.02.02-.02.01-.02.03-.04.04-.06.01-.02.03-.04.04-.06,0-.01.01-.02.02-.03,0,0,0,0,0,0,.02-.03.04-.06.06-.1.01-.02.02-.03.03-.05.02-.03.04-.06.06-.1.01-.02.02-.04.03-.06.02-.03.04-.07.06-.1,0,0,0,0,0-.01.04-.08.08-.15.12-.23.01-.02.02-.04.03-.07.02-.03.03-.07.05-.1.01-.03.02-.05.04-.08.01-.03.03-.06.04-.1.01-.03.03-.06.04-.1.01-.03.03-.07.04-.1.02-.05.04-.1.06-.15.01-.03.02-.05.03-.08.02-.04.03-.08.05-.12,0-.02.02-.05.03-.07.02-.05.03-.09.05-.14,0-.02.01-.04.02-.06.05-.14.09-.27.14-.41,0-.01,0-.02.01-.03.02-.06.04-.12.06-.19,0,0,0-.02,0-.03.05-.16.09-.32.13-.48,0-.01,0-.03.01-.04,0,0,0-.02,0-.03.03-.11.05-.22.08-.32,0,0,0-.02,0-.02,0-.01,0-.02,0-.03,0,0,0,0,0,0s0,0,0,0c0,0,0,0,0,0,.02-.09.04-.18.06-.27,0,0,0,0,0,0,0,0,0,0,0,0,0-.03.01-.07.02-.1,0,0,0-.01,0-.02,0,0,0,0,0-.01.05-.23.1-.46.14-.69,0,0,0-.01,0-.02,0,0,0,0,0-.01.03-.16.06-.32.08-.48,0,0,0-.01,0-.02,0-.04.01-.08.02-.12,0,0,0-.02,0-.03h0s0,0,0-.01c0,0,0,0,0,0,0,0,0,0,0,0,0,0,0,0,0,0,0,0,0,0,0,0,.01.07.02.14.03.21,0,.01,0,.02,0,.04,0,.06.02.13.03.19,0,0,0,.02,0,.03.01.07.02.14.04.21,0,0,0,.01,0,.02.01.07.03.14.04.21,0,0,0,.01,0,.02,0,.03.01.06.02.1,0,0,0,.02,0,.03,0,.03.01.06.02.09,0,.04.02.08.02.11.01.05.02.1.03.15,0,.03.01.06.02.09.01.05.02.11.04.16,0,0,0,0,0,.01,0,0,0,.01,0,.02.02.1.05.2.07.29,0,.02,0,.04.02.06,0,.02,0,.03.01.05,0,.02,0,.03.01.05,0,.03.02.06.02.1,0,.01,0,.03.01.04,0,.03.01.05.02.08.01.04.02.09.04.13.01.05.03.1.04.15,0,0,0,0,0,0,0,0,0,0,0,0,.03.11.06.22.1.33.01.04.03.08.04.12,0,.02.01.04.02.05,0,.02.01.03.02.05,0,0,0,.01,0,.02,0,.01,0,.03.01.04.03.08.06.16.09.24,0,.03.02.05.03.08,0,.02.01.03.02.05,0,.01,0,.03.01.04,0,.02.02.04.02.07,0,.02.02.04.02.06.02.04.03.08.05.12,0,.02.01.03.02.05.02.04.04.09.06.13,0,.01,0,.02.01.03.03.08.07.15.1.23,0,0,0,0,0,.01.01.02.02.05.03.07.01.02.02.04.03.07,0,0,0,.02.01.03.01.03.03.05.04.08.02.03.03.06.05.09,0,0,0,.01,0,.02,0,.02.02.03.03.05.01.02.02.04.04.07.01.02.02.04.03.06,0,0,0,.02.01.02.02.04.05.08.07.12,0,.01.02.03.02.04,0,0,0,.01.01.02.02.04.05.08.07.11,0,0,0,0,0,0,0,0,0,0,0,0,0,0,0,.01.01.02.02.04.05.07.07.1,0,0,0,.01.01.02,0,0,.01.02.02.02.02.03.04.06.06.08,0,0,.01.02.02.02,0,0,0,0,0,.01.03.04.06.07.09.11,0,0,0,0,0,0,0,0,0,0,0,0,.23.28.46.46.46.46,0,0,0,0,.01.01.02.02.05.04.07.06.02.01.03.03.05.04.01,0,.02.02.04.03.02.02.05.04.07.06,0,0,.01,0,.02.01.17.12.36.24.56.35,0,0,0,0,.01,0,.05.03.1.05.14.08,0,0,.01,0,.02,0,0,0,.02,0,.03.01.02,0,.04.02.06.03.01,0,.03.01.04.02.01,0,.02.01.04.02,0,0,0,0,.01,0,0,0,0,0,.01,0,.04.02.08.04.12.05,0,0,.02,0,.03.01,0,0,0,0,0,0,.02,0,.03.01.05.02.02,0,.04.02.06.03.02,0,.04.02.06.03.01,0,.03.01.04.02.06.02.12.05.17.07.03.01.05.02.08.03.33.13.66.24,1.01.34,0,0,0,0,0,0,.07.02.13.04.2.06,0,0,0,0,.01,0,.2.06.39.11.59.16.01,0,.03,0,.04.01.06.01.11.03.16.04.03,0,.05.01.08.02.05.01.1.02.15.03.05.01.11.02.16.03.04,0,.09.02.13.03.05.01.11.02.16.03.03,0,.05.01.08.01.06.01.13.02.19.04.01,0,.03,0,.04,0,.27.05.53.09.77.13,0,0,0,0,.01,0,0,0,.01,0,.02,0,0,0,0,0-.01,0Zm4.72-7.78s0,0,0,0c-.01,0-.02,0-.03,0-.01,0-.02,0-.04,0,0,0,0,0,0,0-.01,0-.03,0-.04,0,0,0,0,0,0,0,0,0,0,0,0,0-.03,0-.06.01-.1.02-.02,0-.04,0-.06.01,0,0-.02,0-.02,0-.04,0-.08.01-.12.02-.02,0-.03,0-.05,0,0,0-.02,0-.03,0,0,0-.02,0-.03,0,0,0-.01,0-.02,0-.04,0-.09.02-.13.03,0,0,0,0,0,0-.05.01-.11.02-.16.03,0,0-.02,0-.03,0,0,0,0,0-.01,0,0,0-.02,0-.03,0-.05.01-.1.02-.15.03,0,0,0,0,0,0-.02,0-.05.01-.07.02-.03,0-.07.02-.1.02-.01,0-.02,0-.03,0,0,0,0,0,0,0-.01,0-.03,0-.04.01-.02,0-.05.01-.07.02,0,0,0,0-.01,0-.06.02-.13.03-.19.05-.01,0-.02,0-.03.01-.02,0-.04.01-.06.02-.02,0-.05.01-.07.02-.02,0-.05.01-.07.02-.01,0-.03,0-.04.01-.02,0-.04.01-.06.02-.03,0-.06.02-.09.03-.02,0-.03.01-.05.02,0,0-.01,0-.02,0-.14.05-.28.1-.42.16,0,0,0,0-.01,0-.03.01-.07.03-.1.04,0,0-.01,0-.02,0-.04.02-.07.03-.11.05,0,0,0,0,0,0-.04.02-.07.04-.11.05,0,0-.01,0-.02.01-.03.01-.06.03-.08.04,0,0-.02.01-.03.02-.03.01-.05.03-.08.04,0,0-.01,0-.02.01-.03.02-.06.04-.09.06,0,0-.01,0-.02.01-.02.02-.05.03-.07.05,0,0-.02.01-.03.02-.02.01-.04.03-.06.04,0,0-.02.01-.02.02-.03.02-.05.04-.08.06,0,0,0,0,0,0h0s0,0,0,0h0c-.17.14-.28.28-.28.28h0s0,0,0,0c-.01.01-.02.03-.03.04,0,.01-.02.02-.03.03,0,0,0,0,0,0,0,0-.01.02-.02.03-.01.01-.02.03-.03.04,0,0,0,0,0,.01,0,.01-.02.02-.02.03,0,.01-.02.02-.02.04,0,0,0,.01-.01.02,0,0,0,0,0,0-.01.02-.03.04-.04.06,0,.01-.01.02-.02.03-.01.02-.02.04-.04.06,0,.01-.01.02-.02.03-.01.02-.02.04-.04.06,0,0,0,0,0,0-.03.05-.05.09-.07.14,0,.01-.01.03-.02.04,0,.02-.02.04-.03.06,0,.02-.02.03-.02.05,0,.02-.02.04-.03.06,0,.02-.02.04-.03.06,0,.02-.02.04-.03.06-.01.03-.03.06-.04.09,0,.02-.01.03-.02.05,0,.02-.02.05-.03.07,0,.02-.01.03-.02.05-.01.03-.02.06-.03.09,0,.01,0,.02-.01.03-.03.08-.06.17-.08.25,0,0,0,.01,0,.02-.01.04-.02.08-.03.12,0,0,0,.01,0,.02-.03.1-.06.2-.08.3,0,0,0,.02,0,.02,0,0,0,.01,0,.02-.02.07-.03.13-.05.2,0,0,0,.01,0,.02,0,0,0,.01,0,.02h0s0,0,0,0c0,0,0,0,0,0-.01.06-.03.11-.04.17,0,0,0,0,0,0,0,0,0,0,0,0,0,.02,0,.04-.01.06,0,0,0,0,0,.01,0,0,0,0,0,0-.03.15-.06.29-.08.42,0,0,0,0,0,.01,0,0,0,0,0,0-.02.1-.03.2-.05.29,0,0,0,0,0,.01,0,.03,0,.05-.01.08,0,0,0,.01,0,.02h0s0,0,0,0c0,0,0,0,0,0,0,0,0,0,0,0,0,0,0,0,0,0h0s-.01-.09-.02-.13c0,0,0-.01,0-.02,0-.04-.01-.08-.02-.12,0,0,0-.01,0-.02,0-.04-.01-.08-.02-.13,0,0,0,0,0-.01,0-.04-.02-.09-.02-.13,0,0,0,0,0-.01,0-.02,0-.04-.01-.06,0,0,0-.01,0-.02,0-.02,0-.04-.01-.06,0-.02,0-.05-.01-.07,0-.03-.01-.06-.02-.09,0-.02,0-.04-.01-.05,0-.03-.02-.07-.02-.1,0,0,0,0,0,0,0,0,0,0,0-.01-.01-.06-.03-.12-.04-.18,0-.01,0-.03,0-.04,0-.01,0-.02,0-.03,0,0,0-.02,0-.03,0-.02-.01-.04-.02-.06,0,0,0-.02,0-.03,0-.02,0-.03-.01-.05,0-.03-.01-.05-.02-.08,0-.03-.02-.06-.03-.09,0,0,0,0,0,0,0,0,0,0,0,0-.02-.07-.04-.13-.06-.2,0-.03-.02-.05-.02-.08,0-.01,0-.02-.01-.03,0,0,0-.02,0-.03,0,0,0,0,0-.01,0,0,0-.02,0-.02-.02-.05-.03-.1-.05-.15,0-.02-.01-.03-.02-.05,0-.01,0-.02-.01-.03,0,0,0-.02,0-.02,0-.01-.01-.03-.02-.04,0-.01-.01-.03-.02-.04,0-.02-.02-.05-.03-.07,0,0,0-.02-.01-.03-.01-.03-.02-.06-.03-.08,0,0,0-.01,0-.02-.02-.05-.04-.1-.06-.14,0,0,0,0,0,0,0-.02-.01-.03-.02-.05,0-.01-.01-.03-.02-.04,0,0,0-.01,0-.02,0-.02-.02-.03-.03-.05,0-.02-.02-.04-.03-.06,0,0,0,0,0-.01,0,0-.01-.02-.02-.03,0-.01-.02-.03-.02-.04,0-.01-.01-.02-.02-.04,0,0,0,0,0-.01-.01-.02-.03-.05-.04-.07,0,0,0-.02-.01-.02,0,0,0,0,0-.01-.01-.02-.03-.05-.05-.07,0,0,0,0,0,0,0,0,0,0,0,0,0,0,0,0,0-.01-.01-.02-.03-.04-.04-.06,0,0,0,0,0,0,0,0,0,0-.01-.01-.01-.02-.03-.04-.04-.05,0,0,0,0-.01-.01,0,0,0,0,0,0-.02-.02-.04-.05-.06-.07h0c-.14-.17-.28-.28-.28-.28,0,0,0,0,0,0-.01-.01-.03-.02-.04-.04-.01,0-.02-.02-.03-.03,0,0-.01-.01-.02-.02-.01-.01-.03-.02-.05-.03,0,0,0,0,0,0-.11-.08-.22-.15-.35-.22,0,0,0,0,0,0-.03-.02-.06-.03-.09-.05,0,0,0,0-.01,0,0,0-.01,0-.02,0-.01,0-.02-.01-.04-.02,0,0-.02,0-.03-.01,0,0-.01,0-.02-.01,0,0,0,0,0,0,0,0,0,0-.01,0-.02-.01-.05-.02-.07-.03,0,0-.01,0-.02,0,0,0,0,0,0,0,0,0-.02,0-.03-.01-.01,0-.03-.01-.04-.02-.01,0-.02-.01-.04-.02,0,0-.02,0-.02-.01-.04-.01-.07-.03-.11-.04-.02,0-.03-.01-.05-.02-.2-.08-.41-.15-.62-.21,0,0,0,0,0,0-.04-.01-.08-.02-.12-.04h0c-.12-.04-.24-.07-.36-.1,0,0-.02,0-.03,0-.03,0-.07-.02-.1-.02-.02,0-.03,0-.05-.01-.03,0-.06-.01-.09-.02-.03,0-.07-.01-.1-.02-.03,0-.05-.01-.08-.02-.03,0-.07-.01-.1-.02-.02,0-.03,0-.05,0-.04,0-.08-.02-.12-.02,0,0-.02,0-.03,0-.17-.03-.33-.06-.47-.08,0,0,0,0,0,0,0,0,0,0-.01,0,0,0,0,0,0,0,0,0,0,0,0,0h0s.02,0,.03,0c.01,0,.02,0,.04,0,0,0,0,0,0,0,.01,0,.03,0,.04,0,0,0,0,0,0,0,0,0,0,0,0,0,.03,0,.06-.01.1-.02.02,0,.04,0,.06-.01,0,0,.02,0,.02,0,.04,0,.08-.01.12-.02.02,0,.03,0,.05,0,0,0,.02,0,.03,0,0,0,.02,0,.03,0,0,0,.01,0,.02,0,.04,0,.09-.02.13-.03,0,0,0,0,0,0,.05-.01.11-.02.16-.03,0,0,.02,0,.03,0,0,0,0,0,.01,0,0,0,.02,0,.03,0,.05-.01.1-.02.15-.03,0,0,0,0,0,0,.02,0,.05-.01.07-.02.03,0,.07-.02.1-.02.01,0,.02,0,.03,0,0,0,0,0,0,0,.01,0,.03,0,.04-.01.02,0,.05-.01.07-.02,0,0,0,0,.01,0,.06-.02.13-.03.19-.05.01,0,.02,0,.03-.01.02,0,.04-.01.06-.02.02,0,.05-.01.07-.02.02,0,.05-.01.07-.02.01,0,.03,0,.04-.01.02,0,.04-.01.06-.02.03,0,.06-.02.09-.03.02,0,.03-.01.05-.02,0,0,.01,0,.02,0,.14-.05.28-.1.42-.16h.01s.07-.03.1-.05c0,0,.01,0,.02,0,.04-.02.07-.03.11-.05,0,0,0,0,0,0,.04-.02.07-.04.11-.05,0,0,.01,0,.02-.01.03-.01.06-.03.08-.04,0,0,.02-.01.03-.02.03-.01.05-.03.08-.04,0,0,.01,0,.02-.01.03-.02.06-.04.09-.06,0,0,.01,0,.02-.01.02-.02.05-.03.07-.05,0,0,.02-.01.03-.02.02-.01.04-.03.06-.04,0,0,.02-.01.02-.02.03-.02.05-.04.08-.06,0,0,0,0,0,0h0c.17-.14.28-.28.28-.28h0s0,0,0,0c.01-.01.02-.03.03-.04,0-.01.02-.02.03-.03,0,0,0,0,0,0,0,0,.01-.02.02-.03.01-.01.02-.03.03-.04,0,0,0,0,0-.01,0-.01.02-.02.02-.04,0-.01.02-.02.02-.04,0,0,0-.01.01-.02,0,0,0,0,0,0,.01-.02.03-.04.04-.06,0-.01.01-.02.02-.03.01-.02.02-.04.04-.06,0-.01.01-.02.02-.03.01-.02.02-.04.04-.06,0,0,0,0,0,0,.03-.05.05-.09.07-.14,0-.01.01-.03.02-.04,0-.02.02-.04.03-.06,0-.02.02-.03.02-.05,0-.02.02-.04.03-.06,0-.02.02-.04.03-.06,0-.02.02-.04.03-.07.01-.03.03-.06.04-.09,0-.02.01-.03.02-.05,0-.02.02-.05.03-.07,0-.02.01-.03.02-.05.01-.03.02-.06.03-.09,0-.01,0-.02.01-.03.03-.08.06-.17.08-.25,0,0,0-.01,0-.02.01-.04.02-.08.03-.12,0,0,0-.01,0-.02.03-.1.06-.2.08-.3,0,0,0-.02,0-.02,0,0,0-.01,0-.02.02-.07.03-.13.05-.2,0,0,0-.01,0-.02,0,0,0-.01,0-.02,0,0,0,0,0,0s0,0,0,0c0,0,0,0,0,0,.01-.06.03-.11.04-.17,0,0,0,0,0,0,0,0,0,0,0,0,0-.02,0-.04.01-.06,0,0,0,0,0-.01,0,0,0,0,0,0,.03-.15.06-.29.08-.42,0,0,0,0,0-.01,0,0,0,0,0,0,.02-.1.03-.2.05-.29,0,0,0,0,0-.01,0-.03,0-.05.01-.08,0,0,0-.01,0-.02h0s0,0,0,0c0,0,0,0,0,0,0,0,0,0,0,0,0,0,0,0,0,0,0,0,0,0,0,0,0,.04.01.09.02.13,0,0,0,.01,0,.02,0,.04.01.08.02.12,0,0,0,.01,0,.02,0,.04.01.08.02.13,0,0,0,0,0,.01,0,.04.02.09.02.13,0,0,0,0,0,.01,0,.02,0,.04.01.06,0,0,0,.01,0,.02,0,.02,0,.04.01.06,0,.02,0,.05.01.07,0,.03.01.06.02.09,0,.02,0,.04.01.05,0,.03.02.07.02.1,0,0,0,0,0,0,0,0,0,0,0,.01.01.06.03.12.04.18,0,.01,0,.03,0,.04,0,.01,0,.02,0,.03,0,0,0,.02,0,.03,0,.02.01.04.02.06,0,0,0,.02,0,.03,0,.02,0,.03.01.05,0,.03.01.05.02.08,0,.03.02.06.03.09,0,0,0,0,0,0,0,0,0,0,0,0,.02.07.04.13.06.2,0,.03.02.05.02.08,0,.01,0,.02.01.03,0,0,0,.02,0,.03,0,0,0,0,0,.01,0,0,0,.02,0,.02.02.05.03.1.05.15,0,.02.01.03.02.05,0,.01,0,.02.01.03,0,0,0,.02,0,.02,0,.01.01.03.02.04,0,.01.01.03.02.04,0,.02.02.05.03.07,0,0,0,.02.01.03.01.03.02.06.03.08,0,0,0,.01,0,.02.02.05.04.1.06.14,0,0,0,0,0,0,0,.02.01.03.02.05,0,.01.01.03.02.04,0,0,0,.01,0,.02,0,.02.02.03.03.05,0,.02.02.04.03.06,0,0,0,0,0,.01,0,0,.01.02.02.03,0,.01.02.03.02.04,0,.01.01.02.02.04,0,0,0,0,0,.01.01.03.03.05.04.07,0,0,0,.02.01.02,0,0,0,0,0,.01.01.02.03.05.05.07,0,0,0,0,0,0,0,0,0,0,0,0,0,0,0,0,0,.01.01.02.03.04.04.06,0,0,0,0,0,0,0,0,0,0,.01.01.01.02.03.03.04.05,0,0,0,0,.01.01,0,0,0,0,0,0,.02.02.04.05.06.07h0c.14.17.28.28.28.28,0,0,0,0,0,0,.01.01.03.02.04.04.01,0,.02.02.03.03,0,0,.01.01.02.02.02.01.03.02.05.03,0,0,0,0,0,0,.11.08.22.15.35.22,0,0,0,0,0,0,.03.02.06.03.09.05,0,0,0,0,.01,0,0,0,.01,0,.02,0,.01,0,.02.01.04.02,0,0,.02,0,.03.01,0,0,.01,0,.02.01,0,0,0,0,0,0,0,0,0,0,0,0,.02.01.05.02.07.03,0,0,.01,0,.02,0,0,0,0,0,0,0,0,0,.02,0,.03.01.01,0,.03.01.04.02.01,0,.02.01.04.02,0,0,.02,0,.02,0,.04.01.07.03.11.04.02,0,.03.01.05.02.2.08.41.15.62.21,0,0,0,0,0,0,.04.01.08.02.12.04,0,0,0,0,0,0,.12.03.24.07.36.1,0,0,.02,0,.03,0,.03,0,.07.02.1.02.02,0,.03,0,.05.01.03,0,.06.01.09.02.03,0,.07.01.1.02.03,0,.06.01.08.02.03,0,.07.01.1.02.02,0,.03,0,.05,0,.04,0,.08.02.12.02,0,0,.02,0,.03,0,.17.03.33.06.47.08,0,0,0,0,0,0,0,0,0,0,.01,0,0,0,0,0,0,0Z"/>
  <path class="cls-6" d="m207.42,6.82s0,0,0,0c-.2-.03-.42-.07-.65-.11-.01,0-.02,0-.03,0-.05,0-.11-.02-.16-.03-.02,0-.04,0-.06-.01-.05,0-.09-.02-.14-.03-.04,0-.08-.02-.11-.02-.04,0-.09-.02-.13-.03-.04,0-.08-.02-.12-.03-.02,0-.04-.01-.07-.02-.05-.01-.09-.02-.14-.03-.01,0-.02,0-.04,0-.17-.04-.33-.08-.5-.13,0,0,0,0-.01,0-.06-.02-.11-.03-.17-.05,0,0,0,0,0,0-.29-.09-.58-.18-.86-.29-.02,0-.05-.02-.07-.03-.05-.02-.1-.04-.15-.06-.01,0-.02,0-.03-.01-.02,0-.03-.01-.05-.02-.02,0-.03-.02-.05-.02-.01,0-.03-.01-.04-.02,0,0,0,0,0,0,0,0-.01,0-.02-.01-.03-.02-.07-.03-.1-.05,0,0,0,0-.01,0,0,0,0,0-.01,0-.01,0-.02-.01-.03-.02-.01,0-.02-.01-.04-.02-.02,0-.03-.02-.05-.02,0,0-.02,0-.02-.01,0,0,0,0-.01,0-.04-.02-.08-.04-.12-.06,0,0,0,0-.01,0-.17-.09-.33-.19-.48-.3,0,0,0,0-.01,0-.02-.02-.04-.03-.06-.05-.01,0-.02-.02-.03-.02-.01-.01-.03-.02-.04-.04-.02-.02-.04-.03-.06-.05,0,0,0,0-.01,0,0,0-.19-.15-.39-.39h0s0,0,0,0c-.03-.03-.05-.06-.08-.09,0,0,0,0,0-.01,0,0,0-.01-.01-.02-.02-.02-.04-.05-.05-.07,0,0,0-.01-.01-.02,0,0,0,0,0-.01-.02-.03-.04-.06-.06-.09,0,0,0,0-.01-.01,0,0,0,0,0,0,0,0,0,0,0,0-.02-.03-.04-.06-.06-.1,0,0,0-.01-.01-.02,0-.01-.01-.02-.02-.03-.02-.03-.04-.07-.06-.1,0,0,0-.01-.01-.02,0-.02-.02-.03-.03-.05-.01-.02-.02-.04-.03-.06,0-.01-.01-.03-.02-.04,0,0,0,0,0-.01-.01-.03-.03-.05-.04-.08-.01-.02-.02-.05-.03-.07,0,0,0-.02-.01-.02,0-.02-.02-.04-.03-.06,0-.02-.02-.04-.03-.06,0,0,0,0,0,0-.03-.06-.06-.13-.09-.2,0,0,0-.02-.01-.03-.02-.04-.03-.08-.05-.11,0-.01-.01-.03-.02-.04-.01-.03-.03-.07-.04-.1,0-.02-.01-.04-.02-.05,0-.02-.01-.04-.02-.06,0-.01,0-.02-.01-.03,0-.01-.01-.03-.02-.04,0-.02-.02-.04-.02-.07-.02-.07-.05-.14-.07-.21,0-.01,0-.02-.01-.03,0,0,0,0,0-.01,0-.01,0-.03-.01-.04,0-.02,0-.03-.01-.05-.01-.03-.02-.07-.03-.1-.03-.09-.06-.18-.08-.28,0,0,0,0,0,0,0,0,0,0,0,0-.01-.04-.02-.08-.04-.12-.01-.04-.02-.07-.03-.11,0-.02-.01-.04-.02-.07,0-.01,0-.02,0-.03,0-.03-.01-.05-.02-.08,0-.01,0-.03-.01-.04,0-.01,0-.03-.01-.04,0-.02,0-.04-.01-.05-.02-.08-.04-.17-.06-.25,0,0,0-.01,0-.02,0,0,0,0,0-.01-.01-.05-.02-.09-.03-.14,0-.02-.01-.05-.02-.07,0-.04-.02-.08-.03-.12,0-.03-.01-.06-.02-.1,0-.03-.01-.05-.02-.08,0,0,0-.02,0-.02,0-.03-.01-.05-.02-.08,0,0,0-.01,0-.02-.01-.06-.02-.12-.03-.18,0,0,0-.01,0-.02-.01-.06-.02-.12-.03-.18,0,0,0-.02,0-.02,0-.05-.02-.11-.03-.16,0,0,0-.02,0-.03,0-.06-.02-.12-.03-.18,0,0,0,0,0,0,0,0,0,0,0,0,0,0,0,0,0,0,0,0,0,0,0,0,0,0,0,0,0,0t0,0s0,.02,0,.02c0,.03-.01.07-.02.1,0,0,0,.01,0,.02-.02.13-.04.26-.07.4,0,0,0,0,0,.01,0,0,0,0,0,.01-.03.19-.07.38-.11.58,0,0,0,0,0,0,0,0,0,0,0,.01,0,.03-.01.06-.02.08,0,0,0,0,0,0h0c-.02.08-.03.16-.05.23,0,0,0,0,0,0,0,0,0,0,0,0,0,0,0,0,0,0,0,0,0,.02,0,.03,0,0,0,.01,0,.02-.02.09-.04.18-.07.27,0,0,0,.02,0,.02,0,.01,0,.02,0,.03-.04.14-.07.27-.11.41,0,0,0,.01,0,.02-.02.05-.03.11-.05.16,0,0,0,.02,0,.03-.04.12-.07.23-.11.35,0,.02-.01.03-.02.05-.01.04-.03.08-.04.12,0,.02-.02.04-.02.06-.01.03-.03.07-.04.1,0,.02-.02.04-.03.06-.02.04-.03.09-.05.13-.01.03-.02.06-.04.09-.01.03-.02.06-.04.08s-.02.05-.04.08c-.01.02-.02.04-.03.07-.01.03-.03.06-.04.08,0,.02-.02.04-.03.06-.03.07-.07.13-.1.2,0,0,0,0,0,0-.02.03-.03.06-.05.09,0,.02-.02.03-.03.05-.02.03-.03.05-.05.08,0,.02-.02.03-.03.04-.02.03-.03.05-.05.08,0,0,0,0,0,0,0,0-.01.02-.02.03-.01.02-.02.03-.03.05-.01.02-.02.03-.03.05,0,0,0,.01-.01.02-.02.02-.03.04-.05.06-.01.01-.02.03-.03.04,0,0,0,0,0,0-.01.02-.03.03-.04.05-.01.02-.03.04-.04.05,0,0,0,0,0,0h0s-.15.19-.39.39h0s0,0,0,0c-.03.03-.07.06-.11.09-.01,0-.02.02-.03.03-.03.02-.05.04-.08.06-.01,0-.02.02-.04.03-.03.02-.07.05-.1.07,0,0-.01,0-.02.01-.04.03-.08.05-.13.08-.01,0-.02.01-.03.02-.03.02-.07.04-.1.06-.01,0-.03.01-.04.02-.04.02-.07.04-.11.06,0,0-.02,0-.03.01-.05.03-.1.05-.15.07,0,0,0,0,0,0-.05.02-.1.05-.15.07,0,0-.02,0-.03.01-.05.02-.09.04-.14.06,0,0-.01,0-.02,0-.19.08-.38.15-.58.22,0,0-.02,0-.02,0-.02,0-.05.02-.07.02-.04.01-.08.03-.12.04-.03,0-.05.02-.08.03-.02,0-.04.01-.05.02-.03,0-.06.02-.1.03-.03,0-.07.02-.1.03-.03,0-.06.02-.09.03-.02,0-.03,0-.05.01-.09.03-.18.05-.26.07,0,0-.01,0-.02,0-.03,0-.07.02-.1.03-.02,0-.04,0-.05.01,0,0,0,0-.01,0-.02,0-.03,0-.05.01-.05.01-.09.02-.14.03-.03,0-.07.02-.1.02,0,0,0,0-.01,0-.07.02-.13.03-.2.05-.01,0-.02,0-.03,0,0,0-.01,0-.02,0-.01,0-.03,0-.04,0-.08.02-.15.03-.22.05,0,0,0,0,0,0-.06.01-.12.02-.18.04,0,0-.01,0-.02,0-.01,0-.03,0-.04,0-.01,0-.03,0-.04,0-.02,0-.04,0-.06.01-.05,0-.11.02-.16.03-.01,0-.02,0-.03,0-.03,0-.06,0-.09.01-.05,0-.09.01-.13.02,0,0,0,0,0,0,0,0,0,0,0,0-.02,0-.03,0-.05,0,0,0,0,0,0,0-.02,0-.03,0-.05,0-.01,0-.03,0-.04,0,0,0,0,0,0,0,0,0,0,0-.01,0,0,0,.01,0,.02,0,0,0,0,0,0,0,.2.03.42.07.65.11.01,0,.02,0,.03,0,.05,0,.11.02.16.03.02,0,.04,0,.06.01.05,0,.09.02.14.03.04,0,.07.02.11.02.05,0,.09.02.14.03.04,0,.08.02.12.03.02,0,.04.01.07.02.05.01.09.02.14.03.01,0,.02,0,.04,0,.17.04.33.09.5.13,0,0,0,0,.01,0,.06.02.11.03.17.05,0,0,0,0,0,0,.29.09.58.18.86.29.02,0,.05.02.07.03.05.02.1.04.15.06.01,0,.02,0,.03.01.02,0,.03.01.05.02.02,0,.03.02.05.02.01,0,.03.01.04.02,0,0,0,0,0,0,0,0,.01,0,.02,0,.03.01.06.03.09.04,0,0,.01,0,.02,0,0,0,0,0,.01,0,.01,0,.02.01.03.02.01,0,.02.01.04.02.02,0,.03.02.05.02,0,0,.02,0,.02.01,0,0,0,0,.01,0,.04.02.08.04.12.06,0,0,0,0,.01,0,.17.09.33.19.48.3,0,0,0,0,.01,0,.02.02.04.03.06.05.01,0,.02.02.03.02.01.01.03.02.04.04.02.02.04.03.06.05,0,0,0,0,.01,0,0,0,.19.15.39.39h0s0,0,0,0c.03.03.05.06.08.09,0,0,0,0,0,0,0,0,0,.01.01.02.02.02.04.05.05.07,0,0,0,.01.01.02,0,0,0,0,0,.01.02.03.04.06.06.09,0,0,0,0,.01.01,0,0,0,0,0,0,0,0,0,0,0,0,.02.03.04.06.06.1,0,0,0,.01.01.02,0,.01.01.02.02.03.02.03.04.07.06.1,0,0,0,.01.01.02,0,.02.02.03.03.05.01.02.02.04.03.06,0,.01.01.03.02.04,0,0,0,0,0,.01.01.03.03.05.04.08.01.02.02.05.03.07,0,0,0,.02.01.02,0,.02.02.04.03.06,0,.02.02.04.03.06,0,0,0,0,0,0,.03.06.06.13.09.2,0,0,0,.02.01.03.02.04.03.08.05.11,0,.01.01.03.02.04.01.03.03.07.04.1,0,.02.01.04.02.05,0,.02.01.04.02.06,0,.01,0,.02.01.03,0,.01.01.03.02.04,0,.02.02.04.02.07.02.07.05.14.07.21,0,.01,0,.02.01.03,0,0,0,0,0,.01,0,.01,0,.03.01.04,0,.02,0,.03.01.05.01.03.02.07.03.1.03.09.06.18.08.28,0,0,0,0,0,0,0,0,0,0,0,0,.01.04.02.08.04.12.01.04.02.07.03.11,0,.02.01.04.02.07,0,.01,0,.02,0,.03,0,.03.01.05.02.08,0,.01,0,.03.01.04,0,.01,0,.03.01.04,0,.02,0,.04.01.05.02.08.04.17.06.25,0,0,0,.01,0,.02,0,0,0,0,0,.01.01.05.02.09.03.14,0,.02.01.05.02.07,0,.04.02.08.03.12,0,.03.01.06.02.1,0,.03.01.05.02.08,0,0,0,.02,0,.02,0,.03.01.05.02.08,0,0,0,.01,0,.02.01.06.02.12.03.18,0,0,0,.01,0,.02.01.06.02.12.03.18,0,0,0,.02,0,.02,0,.05.02.11.03.16,0,0,0,.02,0,.03,0,.06.02.12.03.18,0,0,0,0,0,0,0,0,0,0,0,0,0,0,0,0,0,0,0,0,0,0,0,0,0,0,0,0,0,0h0s0-.02,0-.02c0-.03.01-.07.02-.1,0,0,0-.01,0-.02.02-.13.04-.26.07-.4,0,0,0,0,0-.01,0,0,0-.01,0-.02.03-.19.07-.38.11-.58,0,0,0,0,0,0,0,0,0,0,0-.01,0-.03.01-.06.02-.08,0,0,0,0,0,0,0,0,0,0,0,0,.02-.08.03-.15.05-.23,0,0,0,0,0,0,0,0,0,0,0,0,0,0,0,0,0,0,0,0,0-.02,0-.03,0,0,0-.01,0-.02.02-.09.04-.18.07-.27,0,0,0-.02,0-.02,0-.01,0-.02,0-.03.04-.14.07-.27.11-.41,0,0,0-.01,0-.02.02-.05.03-.11.05-.16,0,0,0-.02,0-.03.04-.12.07-.23.11-.35,0-.02.01-.03.02-.05.01-.04.03-.08.04-.12,0-.02.02-.04.02-.06.01-.03.03-.07.04-.1,0-.02.02-.04.03-.06.02-.04.03-.09.05-.13.01-.03.02-.06.04-.09.01-.03.02-.06.04-.08s.02-.05.04-.08c.01-.02.02-.04.03-.07.01-.03.03-.06.04-.08,0-.02.02-.04.03-.06.03-.07.07-.13.1-.2,0,0,0,0,0,0,.02-.03.03-.06.05-.09,0-.02.02-.03.03-.05.02-.03.03-.05.05-.08,0-.02.02-.03.03-.04.02-.03.03-.05.05-.08,0,0,0,0,0,0,0,0,.01-.02.02-.03.01-.02.02-.03.03-.05.01-.02.02-.03.03-.05,0,0,0-.01.01-.02.02-.02.03-.04.05-.06.01-.01.02-.03.03-.04,0,0,0,0,0,0,.01-.02.03-.03.04-.05.01-.02.03-.04.04-.05,0,0,0,0,0,0h0s.15-.19.39-.39h0s0,0,0,0c.03-.03.07-.06.11-.09.01,0,.02-.02.03-.03.03-.02.05-.04.08-.06.01,0,.02-.02.04-.03.03-.02.07-.05.1-.07,0,0,.01,0,.02-.01.04-.03.08-.05.13-.08.01,0,.02-.01.03-.02.03-.02.07-.04.1-.06.01,0,.03-.01.04-.02.04-.02.07-.04.11-.06,0,0,.02,0,.03-.01.05-.03.1-.05.15-.07,0,0,0,0,0,0,.05-.02.1-.05.15-.07,0,0,.02,0,.03-.01.05-.02.09-.04.14-.06,0,0,.01,0,.02,0,.19-.08.38-.15.58-.22,0,0,.02,0,.02,0,.02,0,.05-.01.07-.02.04-.01.08-.03.12-.04.03,0,.05-.02.08-.03.02,0,.04-.01.05-.02.03,0,.06-.02.1-.03.03,0,.07-.02.1-.03.03,0,.06-.02.09-.03.02,0,.03,0,.05-.01.09-.03.18-.05.26-.07,0,0,.01,0,.02,0,.03,0,.07-.02.1-.03.02,0,.04,0,.05-.01,0,0,0,0,.01,0,.02,0,.03,0,.05-.01.05-.01.09-.02.14-.03.03,0,.07-.02.1-.02,0,0,0,0,.01,0,.07-.02.13-.03.2-.05.01,0,.02,0,.03,0,0,0,.01,0,.02,0,.01,0,.03,0,.04,0,.08-.02.15-.03.22-.05,0,0,0,0,0,0,.06-.01.12-.02.18-.04,0,0,.01,0,.02,0,.01,0,.03,0,.04,0,.01,0,.03,0,.04,0,.02,0,.04,0,.06-.01.05,0,.11-.02.16-.03.01,0,.02,0,.03,0,.03,0,.06,0,.09-.01.05,0,.09-.01.13-.02,0,0,0,0,0,0,0,0,0,0,0,0,.02,0,.03,0,.05,0,0,0,0,0,0,0,.02,0,.03,0,.05,0,.01,0,.03,0,.04,0,0,0,0,0,0,0,0,0,0,0,.01,0,0,0-.01,0-.02,0Z"/>
  <circle class="cls-3" cx="110.11" cy="30.86" r="3.56"/>
</svg>